Patient4_TMGait_0pt4_01_right_40_EMG.mot
version=1
nRows=20
nColumns=33
inDegrees=no
endheader
time	1LAddLong	2LGlutMax	3LGlutMed	4LIliopsoas	5LSemiMemb	6LBicFemLong	7LRecFem	8LVastMed	9LVastLat	10LGasMed	11LTibAnt	12lTibPost	13LPeroneusLong	14LSol	15LExtDigLong	16LFlexDigLong	17RAddLong	18RGlutMax	19RGlutMed	20RIliopsoas	21RSemiMemb	22RBicFemLong	23RRecFem	24RVastMed	25RVastLat	26RGasMed	27RTibAnt	28RTibPost	29RPeroneusLong	30RSol	31RExtDigLong	32RFlexDigLong
53.1	0.010834	0.16098	0.027313	0.007629	0.00946	-0.13931	-0.086212	-0.006714	0.044403	0.019226	0.001526	0.010681	-0.007935	0.011597	0.038452	-0.010529	0.002594	-0.11459	-0.26886	-0.080566	0.16998	0.018311	-0.2359	0.048981	0.009613	0.000458	0.001221	-0.007629	-0.091553	-0.22125	0.00061	-0.015869
53.101	-0.000916	0.029144	-0.04425	-0.005646	0.000305	-0.097656	-0.043335	-0.006104	0.081787	0.01297	0.002747	0.011444	-0.028076	0.03418	-0.008392	-0.001526	-0.000153	-0.14053	-0.14297	-0.026855	0.1033	-0.031433	-0.2832	0.076599	0.021515	-0.004883	0.034485	-0.004883	-0.14404	-0.24445	0.000916	-0.015411
53.102	0.009766	-0.14099	-0.087433	0.002441	0.012207	-0.12848	-0.029144	-0.019073	0.14832	0.014191	-0.026703	0.032654	-0.027313	0.01236	-0.028381	0.005341	0.007629	-0.12146	-0.15945	-0.034637	0.087433	-0.05722	-0.28046	0.049896	0.010986	-0.001831	0.060272	-0.001526	-0.1831	-0.20462	0.001831	-0.018005
53.103	0.000458	-0.23025	-0.13901	0.00061	0.075226	-0.17838	0.041199	-0.025635	0.17975	0.021362	-0.053711	0.008698	-0.003662	-0.006561	-0.038605	-0.000763	0.008392	-0.11185	0.11322	-0.030365	0.10208	-0.065308	-0.2449	-0.020447	0.014038	0.006866	0.02594	-0.00824	-0.02655	-0.15854	0.001678	-0.009613
53.104	-0.002594	-0.23056	-0.10788	0.014648	0.063629	-0.26337	0.082245	-0.030975	0.1059	0.015106	-0.031891	0.005035	-0.018005	0.020142	-0.030823	-0.005798	0.009155	-0.068512	-0.026398	0.013275	0.12741	-0.025787	-0.22415	0.008392	-0.012817	-0.007019	-0.008545	-0.001373	0.10239	-0.16739	0.000916	-0.005188
53.105	-0.037384	-0.17761	-0.17654	-0.009155	0.003204	-0.2153	0.04837	0.021362	-0.039978	0.024719	-0.023804	0.013885	-0.018311	-0.003967	0.006104	-0.007172	0.005798	0.027771	0.31097	-0.032196	0.13077	0.012817	-0.24826	0.009766	-0.010529	-0.003204	0.002441	-0.005646	0.13199	-0.12146	0.001678	-0.008087
53.106	-0.030823	-0.13947	-0.25589	0.008392	-0.04837	-0.072021	-0.000305	-0.004425	-0.10559	0.022125	-0.008698	0.009613	-0.031128	0.024719	0.023956	0.000153	-0.000153	0.001526	0.093689	-0.090942	0.1297	0.010071	-0.21408	0.01236	0.016785	-0.002594	-0.00061	-0.003052	0.15198	0.19882	0.004578	-0.00946
53.107	-0.027924	-0.14847	-0.25436	0.011902	-0.076752	0.027313	-0.019531	0.007782	-0.028687	0.019836	-0.005035	0.013428	-0.011139	0.019073	0.025024	0.001221	0.009003	0.061646	0.007935	-0.088959	0.1294	0.027161	-0.24536	-0.012207	0.007782	-0.007935	0.028687	-0.005493	0.18219	0.26276	-0.000305	-0.004272
53.108	-0.026855	-0.067596	-0.17059	0.008087	-0.079498	0.016022	-0.033112	-0.014038	0.051727	0.012512	0.003052	0.006714	-0.024719	-0.002441	0.028381	-0.00885	0.004425	0.14648	0.40375	-0.15182	0.10346	0.022736	-0.21286	-0.032654	-0.004425	-0.012207	0.034332	-0.003662	0.19608	0.11963	0.000305	-0.010529
53.109	-0.016937	-0.098419	0.099182	-0.00061	-0.002899	0.041199	-0.032043	-0.002136	0.065765	0.019226	0.006409	0.007019	-0.022278	0.023956	0.024109	0.003357	0.010529	0.021667	0.42801	-0.050201	0.11169	-0.034637	-0.26245	0.028687	0.02533	-0.01297	0.048981	-0.000305	0.2742	0.018616	-0.000305	-0.00412
53.11	0.001831	-0.16052	0.13657	0.015717	0.042419	0.11383	-0.016327	-0.010834	-0.015869	0.023499	-0.003357	0.009155	-0.026245	0.016174	0.030975	-0.01297	0.005341	-0.002747	0.10849	0.001526	0.11017	-0.082092	-0.20813	0.002594	0.007935	-0.008392	0.037231	-0.002747	0.40939	-0.067596	0.002899	-0.003204
53.111	0.008392	-0.11795	0.050659	0.010986	0.065918	0.18173	-0.003815	-0.007935	-0.033264	0.023346	-0.009613	0.011139	-0.004578	0.04425	0.029449	-0.000153	0.012665	-0.006104	0.013733	0.021667	0.10208	-0.10361	-0.23514	0.015717	0.006561	-0.010376	0.014496	-0.001678	0.25391	-0.11841	0.002747	-0.001373
53.112	-0.000305	0.007172	0.065613	0.000458	0.055847	0.23102	-0.034637	0.002899	0.001526	0.026855	0.019836	0.011444	-0.019073	0.036469	0.020905	0.00412	0.001984	0.057526	0.066833	0.14297	0.10773	-0.10483	-0.25269	0.030518	0.019684	-0.003662	0.020905	-0.003052	-0.042419	-0.17227	0.000153	0.000305
53.113	0.010834	0.012054	0.018005	0.010071	-0.004425	0.23438	-0.037231	0.00473	0.013123	0.02655	0.031433	0.003357	-0.017548	0.017242	0.018311	-0.007935	0.005188	-0.019073	0.032501	0.18448	0.12054	-0.091248	-0.22705	0.00885	0.00824	-0.000763	0.029449	-0.004425	-0.056	-0.14404	0.000458	-0.010529
53.114	0.010986	0.028229	0.045776	0.001221	-0.079041	0.15442	0.004272	-0.002899	0.061798	0.019684	0.000916	0.006866	-0.023499	0.006714	0.016785	-0.009613	0.003967	0.083923	0.09079	0.12894	0.10803	-0.064697	-0.27008	0.005188	0.005798	-0.002289	-0.026855	-0.004272	0.024872	-0.15152	0.001221	-0.00824
53.115	0.025482	0.003204	0.060425	0.022125	-0.041199	-0.16693	-0.077515	-0.013733	0.22675	0.022736	0.024109	0.006104	-0.013275	0.028534	0.013123	-0.000916	0.01358	0.08728	-0.096436	0.067902	0.084991	-0.027924	-0.23438	0.012054	0.009308	0.003204	-0.079803	-0.006866	-0.014954	-0.14572	0.000458	-0.010223
53.116	0.053558	-0.01297	0.02182	-0.00061	-0.005646	-0.3418	-0.15121	0.000458	0.36209	0.019073	0.047913	0.011597	-0.026855	0.029755	0.010986	-0.009918	0.007019	0.12192	-0.39383	-0.005341	0.086517	0.042572	-0.23163	-0.008392	0.008087	0.007019	-0.022583	-0.001373	-0.74402	-0.08667	0	-0.012817
53.117	0.051422	-0.048828	0.012817	0.004272	0.11215	-0.33783	-0.24399	0.028687	0.28656	0.020599	0.036011	0.004883	-0.028229	0.040131	0.005798	0.003052	0.005341	0.052948	-0.11124	-0.031586	0.068665	0.043488	-0.24262	0.016174	0.004883	-0.011292	0.061646	-0.005341	-0.45181	-0.039978	0.000153	-0.016937
53.118	0.031433	-0.010529	0.007935	-0.025635	0.13184	-0.21347	-0.26901	0.038452	0.22492	0.021057	0.004578	0.00412	-0.022736	0.016174	0.019836	-0.014343	0.009308	0.035706	0.30487	0.069275	0.037537	0.027618	-0.2652	-0.01709	0.010071	0.002441	0.12207	-0.00351	-0.042114	-0.049896	0.001068	-0.012207
53.119	0.015106	-0.007019	-0.082397	-0.01236	0.039215	0.014038	-0.23682	0.032043	0.20508	0.024109	-0.055847	0.00946	-0.024261	0.0177	0.020447	0.005951	0.005798	-0.005798	0.31082	0.052032	0.094757	0.005951	-0.29572	0.009308	-0.002899	-0.000153	0.04303	-0.007019	0.005646	-0.029297	0.000458	-0.015106
